<svg width="100" height="44" viewBox="0 0 100 44" fill="none" xmlns="http://www.w3.org/2000/svg">
<path d="M1.16847 27.3402V19.3496H0V17.4531H4.32633V19.3496H3.14888V27.3402H1.16847Z" fill="white"/>
<path d="M6.94531 27.3402V17.4531H8.91673V20.9855H9.84851V17.4531H11.8139V27.3402H9.84851V22.8461H8.91673V27.3402H6.94531Z" fill="white"/>
<path d="M14.7559 27.3402V17.4531H18.7167V19.3646H16.7752V21.2851H18.6388V23.1457H16.7752V25.4167H18.8425V27.3402H14.7559Z" fill="white"/>
<path d="M23.9168 27.4283C23.018 27.4283 22.3689 27.2065 21.9694 26.7631C21.5699 26.3197 21.3702 25.6006 21.3702 24.6059V23.6412H23.3116V24.8726C23.3116 25.364 23.4674 25.6066 23.785 25.6066C23.8539 25.6141 23.9235 25.604 23.9874 25.5773C24.0513 25.5505 24.1075 25.5081 24.1505 25.4538C24.2355 25.2929 24.273 25.111 24.2584 24.9295C24.2647 24.6592 24.2252 24.3897 24.1416 24.1326C24.0734 23.9406 23.972 23.7621 23.8419 23.6053C23.7221 23.4614 23.5124 23.2397 23.2068 22.9401L22.3529 22.0862C22.0493 21.8175 21.8048 21.4886 21.6351 21.1203C21.4654 20.752 21.3742 20.3525 21.3672 19.947C21.3672 19.1042 21.5599 18.463 21.9454 18.0236C22.1613 17.7942 22.4254 17.6156 22.7186 17.5006C23.0119 17.3856 23.327 17.337 23.6412 17.3584C24.54 17.3584 25.1692 17.5951 25.5617 18.0655C25.9542 18.5359 26.1609 19.2639 26.1609 20.2796H24.1475V19.6025C24.1499 19.5477 24.1413 19.493 24.1222 19.4416C24.1032 19.3901 24.0741 19.343 24.0367 19.3029C23.998 19.263 23.9513 19.2317 23.8997 19.211C23.848 19.1904 23.7926 19.1808 23.7371 19.183C23.6738 19.1788 23.6103 19.1881 23.5509 19.2103C23.4915 19.2325 23.4375 19.2672 23.3925 19.3119C23.3125 19.4083 23.2719 19.5313 23.2787 19.6564C23.2977 19.8527 23.3566 20.043 23.4519 20.2156C23.5473 20.3883 23.6769 20.5395 23.833 20.6601L24.9835 21.7627C25.2231 21.9926 25.4454 22.24 25.6486 22.5027C25.835 22.7541 25.9787 23.0345 26.074 23.3326C26.1868 23.7013 26.2404 24.0856 26.2328 24.4711C26.2328 25.4458 26.055 26.1839 25.6995 26.6852C25.325 27.1796 24.7378 27.4283 23.9168 27.4283Z" fill="white"/>
<path d="M28.9414 27.3402V17.4531H30.8978V21.4109L31.8206 17.4531H33.81L32.7045 21.9772L34.0407 27.3402H31.9944L30.9128 22.5465V27.3402H28.9414Z" fill="white"/>
<path d="M36.3555 27.3402V17.4531H38.261V27.3402H36.3555Z" fill="white"/>
<path d="M41.127 27.3402V17.4531H43.1074V25.6564H45.1507V27.3402H41.127Z" fill="white"/>
<path d="M47.7656 27.3402V17.4531H49.743V25.6564H51.7804V27.3402H47.7656Z" fill="white"/>
<path d="M11.877 40.3713C11.5698 40.3932 11.2622 40.3358 10.9837 40.2046C10.7051 40.0735 10.4649 39.8729 10.286 39.6223C9.93451 39.119 9.75974 38.357 9.76174 37.3363V33.0729C9.76174 32.1621 9.96147 31.473 10.361 31.0056C10.7604 30.5382 11.3716 30.3035 12.1945 30.3015C12.7291 30.2691 13.26 30.4076 13.7106 30.697C14.0861 30.9755 14.3513 31.3776 14.4596 31.8325C14.612 32.4609 14.6815 33.1065 14.6663 33.753H12.7308V32.8691C12.74 32.6793 12.7062 32.4898 12.632 32.3149C12.6005 32.2504 12.55 32.1972 12.4873 32.1624C12.4246 32.1276 12.3528 32.1128 12.2814 32.1201C11.9069 32.1201 11.7182 32.3658 11.7182 32.8572V37.6509C11.7062 37.8832 11.7451 38.1153 11.832 38.331C11.8691 38.4056 11.9278 38.4672 12.0006 38.5078C12.0733 38.5485 12.1565 38.5662 12.2395 38.5587C12.3207 38.5654 12.4021 38.5472 12.4727 38.5065C12.5434 38.4658 12.6 38.4046 12.635 38.331C12.7246 38.116 12.7645 37.8835 12.7518 37.6509V36.2367H12.2245V34.529H14.6393V40.2814H13.8484L13.5158 39.4515C13.357 39.7437 13.119 39.985 12.829 40.1477C12.5391 40.3105 12.209 40.388 11.877 40.3713Z" fill="white"/>
<path d="M17.2305 40.2777L18.1832 30.3906H21.5328L22.4766 40.2777H20.6011L20.4632 38.6778H19.2648L19.148 40.2777H17.2305ZM19.4146 37.1048H20.3134L19.876 32.0714H19.7861L19.4146 37.1048Z" fill="white"/>
<path d="M25.1439 30.397H28.1819C28.583 30.3717 28.9804 30.4872 29.3054 30.7235C29.5818 30.9625 29.7696 31.2876 29.8387 31.6463C29.9415 32.1389 29.9888 32.6413 29.9796 33.1444C29.9987 33.5923 29.9242 34.0392 29.7608 34.4567C29.6856 34.6122 29.5792 34.7507 29.4483 34.8636C29.3174 34.9764 29.1648 35.0612 28.9998 35.1128C29.1358 35.1328 29.2654 35.1837 29.3786 35.2616C29.4919 35.3395 29.5857 35.4423 29.653 35.5622C29.8 35.8618 29.869 36.1936 29.8537 36.5269L29.8298 40.266H27.8973V36.4101C27.8973 36.1375 27.8404 35.9607 27.7325 35.8828C27.5487 35.7854 27.3402 35.7448 27.1333 35.7659V40.278H25.1289L25.1439 30.397ZM27.6306 34.0522C27.9063 34.0522 28.0471 33.7526 28.0471 33.1534C28.0516 32.9529 28.0385 32.7524 28.0081 32.5542C28.001 32.4509 27.9562 32.3539 27.8823 32.2815C27.8055 32.2273 27.7125 32.2009 27.6186 32.2066H27.1752V34.0372L27.6306 34.0522Z" fill="white"/>
<path d="M32.4395 40.2777L33.3952 30.3906H36.7418L37.6886 40.2777H35.81L35.6752 38.6778H34.4768L34.3599 40.2777H32.4395ZM34.6266 37.1048H35.5254L35.085 32.0714H34.9951L34.6266 37.1048Z" fill="white"/>
<path d="M42.3887 40.3712C42.0813 40.3927 41.7735 40.3349 41.4949 40.2032C41.2163 40.0715 40.9762 39.8704 40.7978 39.6192C40.4482 39.1159 40.2734 38.3539 40.2734 37.3332V33.0728C40.2734 32.162 40.4732 31.4729 40.8727 31.0055C41.2721 30.5381 41.8793 30.3034 42.6943 30.3014C43.2287 30.2694 43.7596 30.4079 44.2103 30.6969C44.5858 30.9754 44.851 31.3775 44.9593 31.8324C45.1117 32.4608 45.1812 33.1064 45.166 33.7529H43.2336V32.869C43.2427 32.6792 43.2089 32.4897 43.1347 32.3148C43.1032 32.2503 43.0527 32.1971 42.99 32.1623C42.9273 32.1275 42.8555 32.1127 42.7842 32.12C42.4096 32.12 42.2209 32.3657 42.2209 32.857V37.6508C42.2089 37.8831 42.2478 38.1151 42.3347 38.3309C42.3716 38.405 42.4299 38.4662 42.502 38.5068C42.5741 38.5474 42.6567 38.5655 42.7392 38.5586C42.8209 38.5655 42.9027 38.5474 42.9739 38.5067C43.045 38.4661 43.1022 38.4047 43.1377 38.3309C43.2273 38.1158 43.2672 37.8834 43.2545 37.6508V36.2366H42.7272V34.5289H45.151V40.2813H44.3601L44.0275 39.4514C43.8687 39.7435 43.6307 39.9849 43.3407 40.1476C43.0508 40.3104 42.7207 40.3879 42.3887 40.3712Z" fill="white"/>
<path d="M48.0039 40.2777V30.3906H51.9647V32.2991H50.0233V34.2286H51.8838V36.0922H50.0233V38.3602H52.0906V40.2807L48.0039 40.2777Z" fill="white"/>
<path fill-rule="evenodd" clip-rule="evenodd" d="M93.9383 18.0304V39.713H96.7486V43.2903H90.2381V19.5764H62.2278V43.2903H54.7046V39.713H57.515V18.0304L75.7251 7.52315L93.9383 18.0304ZM63.3933 24.0435H89.0816V26.0209H63.3933V24.0435ZM63.3933 20.589H89.0816V22.5694H63.3933V20.589ZM63.3933 27.48H89.0816V29.4604H63.3933V27.48ZM63.3933 30.9345H89.0816V32.9149H63.3933V30.9345ZM63.3933 34.386H89.0816V36.3664H63.3933V34.386ZM63.3933 37.8374H89.0816V39.8178H63.3933V37.8374ZM63.3933 41.2919H89.0816V43.2693H63.3933V41.2919ZM75.7251 4.37127L53.3594 17.3023L51.4629 14.0067L75.7311 0L99.9993 14.0067L98.1028 17.3023L75.7251 4.37127Z" fill="#F8D210"/>
</svg>
